<svg width="256" height="256" viewBox="0 0 256 256" fill="none" xmlns="http://www.w3.org/2000/svg">
<rect width="256" height="256" fill="black"/>
<g clip-path="url(#clip0_31_2)">
<path d="M160 80C165.658 80 171.084 82.2476 175.085 86.2484C179.086 90.2492 181.333 95.6754 181.333 101.333V144C181.333 149.658 179.086 155.084 175.085 159.085C171.084 163.086 165.658 165.333 160 165.333H134.805L109.408 180.571C108.643 181.03 107.775 181.289 106.884 181.326C105.993 181.363 105.107 181.176 104.306 180.782C103.506 180.388 102.818 179.799 102.304 179.07C101.79 178.341 101.467 177.494 101.365 176.608L101.333 176V165.333H96C90.5267 165.333 85.2628 163.23 81.297 159.457C77.3312 155.685 74.967 150.533 74.6933 145.067L74.6667 144V101.333C74.6667 95.6754 76.9143 90.2492 80.9151 86.2484C84.9158 82.2476 90.3421 80 96 80H160ZM138.667 128H106.667C105.252 128 103.896 128.562 102.895 129.562C101.895 130.562 101.333 131.919 101.333 133.333C101.333 134.748 101.895 136.104 102.895 137.105C103.896 138.105 105.252 138.667 106.667 138.667H138.667C140.081 138.667 141.438 138.105 142.438 137.105C143.438 136.104 144 134.748 144 133.333C144 131.919 143.438 130.562 142.438 129.562C141.438 128.562 140.081 128 138.667 128ZM149.333 106.667H106.667C105.252 106.667 103.896 107.229 102.895 108.229C101.895 109.229 101.333 110.586 101.333 112C101.333 113.414 101.895 114.771 102.895 115.771C103.896 116.771 105.252 117.333 106.667 117.333H149.333C150.748 117.333 152.104 116.771 153.105 115.771C154.105 114.771 154.667 113.414 154.667 112C154.667 110.586 154.105 109.229 153.105 108.229C152.104 107.229 150.748 106.667 149.333 106.667Z" fill="white"/>
</g>
<defs>
<clipPath id="clip0_31_2">
<rect width="128" height="128" fill="white" transform="translate(64 64)"/>
</clipPath>
</defs>
</svg>
